<svg width="130" height="31" viewBox="0 0 130 31" fill="none" xmlns="http://www.w3.org/2000/svg">
<g clip-path="url(#clip0_5_28)">
<path d="M31.3589 27.4727V30.9757H18.7578L12.8276 25.0448V21.274H25.161L31.3589 27.4727Z" fill="#DBFB8E"/>
<path d="M31.3596 6.20072V9.70464H10.6255L4.69531 3.77636V0.0020752H25.1617L31.3596 6.20072Z" fill="#DBFB8E"/>
<path d="M9.70136 13.3313V28.8393H5.92753L0 22.911V7.13269H3.50352L9.70136 13.3313Z" fill="#DBFB8E"/>
</g>
<path d="M126.884 23.6978H124.164L122.224 21.0778C118.164 20.9578 115.504 18.2578 115.504 14.1778C115.504 9.99783 118.284 7.27783 122.484 7.27783C126.724 7.27783 129.484 9.99783 129.484 14.1778C129.484 17.6378 127.604 20.0778 124.564 20.8378L126.884 23.6978ZM122.484 18.9978C125.664 18.9978 127.204 17.5178 127.204 14.1778C127.204 10.8378 125.664 9.33783 122.484 9.33783C119.304 9.33783 117.784 10.8378 117.784 14.1778C117.784 17.5178 119.304 18.9978 122.484 18.9978Z" fill="white"/>
<path d="M103.865 20.8778H101.705V7.47778H103.865V13.1578H111.745V7.47778H113.885V20.8778H111.745V15.0978H103.865V20.8778Z" fill="white"/>
<path d="M93.2968 21.0778C91.2368 21.0778 89.9368 20.1178 89.9368 18.4778C89.9368 16.9378 91.1768 16.1378 93.1368 15.9178L97.6568 15.4378V14.8578C97.6568 13.2178 96.9368 12.6378 95.0368 12.6378C93.1968 12.6378 92.2968 13.2378 92.2968 14.6978V14.7778H90.1568V14.6978C90.1568 12.4378 92.0368 10.7378 95.1968 10.7378C98.3568 10.7378 99.7768 12.4578 99.7768 14.8378V20.8778H97.7968V18.3978H97.6568C97.1368 20.0778 95.5568 21.0778 93.2968 21.0778ZM92.0968 18.3378C92.0968 19.1378 92.6368 19.5178 93.8768 19.5178C96.1368 19.5178 97.6568 18.6778 97.6568 16.7178L93.7568 17.1578C92.6368 17.2978 92.0968 17.5578 92.0968 18.3378Z" fill="white"/>
<path d="M84.5888 20.8779H81.9488L77.3088 10.9379H79.6888L83.2288 18.7779H83.3888L86.9288 10.9379H89.2688L84.5888 20.8779Z" fill="white"/>
<path d="M71.451 21.0778C68.191 21.0778 66.051 19.2378 66.051 15.9178C66.051 12.8178 68.171 10.7378 71.411 10.7378C74.491 10.7378 76.591 12.4378 76.591 15.4578C76.591 15.8178 76.571 16.0978 76.511 16.3978H68.071C68.151 18.3178 69.091 19.3378 71.391 19.3378C73.471 19.3378 74.331 18.6578 74.331 17.4778V17.3178H76.491V17.4978C76.491 19.6178 74.411 21.0778 71.451 21.0778ZM71.371 12.4378C69.171 12.4378 68.211 13.4178 68.091 15.1978H74.551V15.1578C74.551 13.3178 73.491 12.4378 71.371 12.4378Z" fill="white"/>
<path d="M64.4508 20.8778H62.2908V7.47778H64.4508V20.8778Z" fill="white"/>
<path d="M54.2796 21.0778C50.1196 21.0778 47.3596 18.3578 47.3596 14.1778C47.3596 9.99783 50.1196 7.27783 54.2796 7.27783C58.0596 7.27783 60.6996 9.27783 60.6996 12.4778V12.7578H58.3196V12.4778C58.3196 10.4378 57.0196 9.33783 54.2996 9.33783C51.1596 9.33783 49.6396 10.8378 49.6396 14.1778C49.6396 17.5178 51.1596 18.9978 54.2996 18.9978C57.0196 18.9978 58.3196 17.9178 58.3196 15.8578V15.5978H60.6996V15.8578C60.6996 19.0778 58.0796 21.0778 54.2796 21.0778Z" fill="white"/>
<defs>
<clipPath id="clip0_5_28">
<rect width="31.3596" height="30.9756" fill="white"/>
</clipPath>
</defs>
</svg>
