<svg width="75" height="75" viewBox="0 0 75 75" fill="none" xmlns="http://www.w3.org/2000/svg">
<rect x="0.5" y="0.689453" width="74" height="74" rx="8" fill="#0A0A0A"/>
<path d="M50.0602 36.3528C50.2989 36.2475 50.5015 36.0745 50.6428 35.8552C50.7841 35.6359 50.858 35.38 50.8553 35.1191C50.8526 34.8582 50.7735 34.6039 50.6276 34.3876C50.4818 34.1712 50.2757 34.0024 50.0349 33.9021L38.6069 28.6968C38.2595 28.5383 37.8821 28.4563 37.5002 28.4563C37.1184 28.4563 36.741 28.5383 36.3936 28.6968L24.9669 33.8968C24.7295 34.0007 24.5276 34.1716 24.3858 34.3885C24.244 34.6054 24.1685 34.859 24.1685 35.1181C24.1685 35.3773 24.244 35.6308 24.3858 35.8477C24.5276 36.0646 24.7295 36.2355 24.9669 36.3394L36.3936 41.5501C36.741 41.7086 37.1184 41.7906 37.5002 41.7906C37.8821 41.7906 38.2595 41.7086 38.6069 41.5501L50.0602 36.3528Z" stroke="#DBFB8E" stroke-width="2" stroke-linecap="round" stroke-linejoin="round"/>
<path d="M50.8335 35.1233V43.1233" stroke="#DBFB8E" stroke-width="2" stroke-linecap="round" stroke-linejoin="round"/>
<path d="M29.5 38.4568V43.1235C29.5 44.1843 30.3429 45.2017 31.8431 45.9519C33.3434 46.702 35.3783 47.1235 37.5 47.1235C39.6217 47.1235 41.6566 46.702 43.1569 45.9519C44.6571 45.2017 45.5 44.1843 45.5 43.1235V38.4568" stroke="#DBFB8E" stroke-width="2" stroke-linecap="round" stroke-linejoin="round"/>
</svg>
