<svg width="75" height="75" viewBox="0 0 75 75" fill="none" xmlns="http://www.w3.org/2000/svg">
<rect x="0.5" y="0.689453" width="74" height="74" rx="8" fill="#0A0A0A"/>
<path d="M38.1068 24.9067C37.7594 24.7483 37.382 24.6663 37.0001 24.6663C36.6183 24.6663 36.2409 24.7483 35.8934 24.9067L24.4668 30.1067C24.2302 30.2111 24.029 30.3819 23.8878 30.5985C23.7466 30.8152 23.6714 31.0682 23.6714 31.3267C23.6714 31.5853 23.7466 31.8383 23.8878 32.0549C24.029 32.2715 24.2302 32.4424 24.4668 32.5467L35.9068 37.7601C36.2542 37.9185 36.6316 38.0005 37.0134 38.0005C37.3953 38.0005 37.7727 37.9185 38.1201 37.7601L49.5601 32.5601C49.7967 32.4557 49.9979 32.2849 50.1391 32.0683C50.2803 31.8516 50.3555 31.5986 50.3555 31.3401C50.3555 31.0815 50.2803 30.8285 50.1391 30.6119C49.9979 30.3953 49.7967 30.2244 49.5601 30.1201L38.1068 24.9067Z" stroke="#DBFB8E" stroke-width="2" stroke-linecap="round" stroke-linejoin="round"/>
<path d="M29.1066 34.6667L24.4399 36.8001C24.2109 36.9078 24.0172 37.0784 23.8815 37.2921C23.7459 37.5058 23.6738 37.7536 23.6738 38.0067C23.6738 38.2599 23.7459 38.5077 23.8815 38.7214C24.0172 38.9351 24.2109 39.1057 24.4399 39.2134L35.9066 44.4267C36.2522 44.5832 36.6272 44.6642 37.0066 44.6642C37.386 44.6642 37.761 44.5832 38.1066 44.4267L49.5466 39.2267C49.7832 39.1224 49.9844 38.9516 50.1256 38.7349C50.2668 38.5183 50.342 38.2653 50.342 38.0067C50.342 37.7482 50.2668 37.4952 50.1256 37.2786C49.9844 37.0619 49.7832 36.8911 49.5466 36.7867L44.8799 34.6667" stroke="#DBFB8E" stroke-width="2" stroke-linecap="round" stroke-linejoin="round"/>
<path d="M29.1066 41.3333L24.4399 43.4666C24.2109 43.5743 24.0172 43.7449 23.8815 43.9586C23.7459 44.1723 23.6738 44.4201 23.6738 44.6733C23.6738 44.9264 23.7459 45.1742 23.8815 45.3879C24.0172 45.6016 24.2109 45.7722 24.4399 45.8799L35.9066 51.0933C36.2522 51.2497 36.6272 51.3307 37.0066 51.3307C37.386 51.3307 37.761 51.2497 38.1066 51.0933L49.5466 45.8933C49.7832 45.7889 49.9844 45.6181 50.1256 45.4014C50.2668 45.1848 50.342 44.9318 50.342 44.6733C50.342 44.4147 50.2668 44.1617 50.1256 43.9451C49.9844 43.7285 49.7832 43.5576 49.5466 43.4533L44.8799 41.3333" stroke="#DBFB8E" stroke-width="2" stroke-linecap="round" stroke-linejoin="round"/>
</svg>
